<svg id="Layer_1" data-name="Layer 1" xmlns="http://www.w3.org/2000/svg" viewBox="0 0 164.72 44.71"><defs><style>.cls-1,.cls-2{fill:#0f5e6b;}.cls-2{fill-rule:evenodd;}.cls-3{fill:#d98145;}</style></defs><path class="cls-1" d="M68.86,29v1.4H62.53v3.46h5.58v1.41H62.53v5.49H61V29Z"/><path class="cls-1" d="M75.18,37.32,74,40.75H72.32L76.74,29h1.8l4.25,11.76H81.05l-1.17-3.43Zm4.13-1.39-1.73-5.2h0l-1.88,5.2Z"/><path class="cls-1" d="M95.37,32.44a2.58,2.58,0,0,0-.29-1.17,2,2,0,0,0-.67-.72,3,3,0,0,0-.42-.27,2.54,2.54,0,0,0-.47-.14,4.37,4.37,0,0,0-1-.1,4.73,4.73,0,0,0-.8.07,2.61,2.61,0,0,0-.87.28,1.89,1.89,0,0,0-.67.62,1.85,1.85,0,0,0-.29,1.09,1.44,1.44,0,0,0,.12.61,1.25,1.25,0,0,0,.43.46,8.09,8.09,0,0,0,2.3.78,8.88,8.88,0,0,1,3.49,1.33,2.69,2.69,0,0,1,.86,2.23,3,3,0,0,1-1.48,2.81,4.31,4.31,0,0,1-1.43.56,6.92,6.92,0,0,1-1.56.18,5.83,5.83,0,0,1-2.3-.42,3.68,3.68,0,0,1-1.41-1,3.78,3.78,0,0,1-.68-1.34,4.62,4.62,0,0,1-.2-1.33h1.45a2.7,2.7,0,0,0,.3,1.33,2.3,2.3,0,0,0,.73.84,2.94,2.94,0,0,0,1,.43,4.13,4.13,0,0,0,1.08.15,5.54,5.54,0,0,0,1-.09,3.4,3.4,0,0,0,1-.28,2.1,2.1,0,0,0,.78-.6,1.66,1.66,0,0,0,.29-1,3.12,3.12,0,0,0-.09-.79,1.13,1.13,0,0,0-.49-.6,11.12,11.12,0,0,0-3.35-1,6,6,0,0,1-2.38-1,2.29,2.29,0,0,1-.88-2,3.57,3.57,0,0,1,.94-2.51,3.78,3.78,0,0,1,3-1.12,6.47,6.47,0,0,1,2.39.39,3.49,3.49,0,0,1,1.32,1,3.74,3.74,0,0,1,.6,1.22,7.49,7.49,0,0,1,.13,1.15Z"/><path class="cls-1" d="M106.38,33.85h5.91V29h1.58V40.75h-1.58V35.26h-5.91v5.49H104.8V29h1.58Z"/><path class="cls-1" d="M124.49,40.75h-1.58V29h1.58Z"/><path class="cls-1" d="M143.51,34.87a8.86,8.86,0,0,1-.25,2,6.52,6.52,0,0,1-.92,2,4.77,4.77,0,0,1-1.71,1.52,5.45,5.45,0,0,1-2.68.63,5.35,5.35,0,0,1-2.65-.63,4.8,4.8,0,0,1-1.72-1.52,6.74,6.74,0,0,1-.91-2,7.32,7.32,0,0,1,0-4.08,6.52,6.52,0,0,1,.91-2,4.73,4.73,0,0,1,1.72-1.53,4.52,4.52,0,0,1,1.2-.45,6.52,6.52,0,0,1,1.45-.15,6.87,6.87,0,0,1,1.48.15,4.39,4.39,0,0,1,1.2.45,4.7,4.7,0,0,1,1.71,1.53,6.37,6.37,0,0,1,.92,2A8.91,8.91,0,0,1,143.51,34.87Zm-1.62,0a5.57,5.57,0,0,0-1-3.45A3.55,3.55,0,0,0,138,30.09a3.5,3.5,0,0,0-2.89,1.32A5.3,5.3,0,0,0,134,34.84a5.4,5.4,0,0,0,1.05,3.44A3.47,3.47,0,0,0,138,39.66a3.55,3.55,0,0,0,2.91-1.37A5.52,5.52,0,0,0,141.89,34.87Z"/><path class="cls-1" d="M158.49,29H160V40.75h-1.72l-5.8-9.5h0v9.5h-1.49V29h1.82l5.7,9.5h0Z"/><path class="cls-2" d="M162.92,3.82V3.76H152.64v.06a6,6,0,0,1,1,.3,2,2,0,0,1,.93.72,2.24,2.24,0,0,1,.38,1.1A12.2,12.2,0,0,1,155,7.29V21.36a10.39,10.39,0,0,1-.07,1.37,2.45,2.45,0,0,1-.38,1.09,2,2,0,0,1-1,.73,5.57,5.57,0,0,1-.93.28v.06h10.28v-.05c-.23-.06-.46-.12-.68-.2a2.82,2.82,0,0,1-.87-.47,2,2,0,0,1-.53-.72,3.3,3.3,0,0,1-.21-1,10.31,10.31,0,0,1,0-1.11v-14a8.06,8.06,0,0,1,.1-1.48,2.25,2.25,0,0,1,.4-1,2.09,2.09,0,0,1,.85-.68,5.23,5.23,0,0,1,1-.33Z"/><path class="cls-2" d="M131.94,15.9V8.39l0,0c.72,1.14,1.54,2.25,2.36,3.33l.52.68,9.62,12.46h4.67V23.44l-1.53-2V7.29a6.7,6.7,0,0,1,.15-1.67,2.16,2.16,0,0,1,.53-1,2.3,2.3,0,0,1,.79-.5,5.67,5.67,0,0,1,.88-.29V3.76h-7.09v.06a6.33,6.33,0,0,1,.93.3,2.16,2.16,0,0,1,.79.53,2,2,0,0,1,.48,1,7.7,7.7,0,0,1,.13,1.66V18.54c-.53-.82-1.08-1.63-1.65-2.42-.31-.43-.61-.87-.93-1.3l-2-2.65-6.45-8.41h-7v.06a4.11,4.11,0,0,1,1.36.53l.14.11.58.75a1.8,1.8,0,0,1,.08.21,7.21,7.21,0,0,1,.17,1.85V21.38a12,12,0,0,1-.07,1.34,2.51,2.51,0,0,1-.39,1.09,2.17,2.17,0,0,1-.94.73,5.9,5.9,0,0,1-.93.29v.06h7.09v-.05a4.17,4.17,0,0,1-1.35-.51,2,2,0,0,1-.81-1.06,6.68,6.68,0,0,1-.19-1.89V15.9Z"/><path class="cls-2" d="M85.8,14.74,90.53,25h4.29l7.69-17.89a10.87,10.87,0,0,1,1.17-1.94,3.81,3.81,0,0,1,1.22-1A4.15,4.15,0,0,1,106,3.74v0H97.77a3,3,0,0,1,1.47.55c1.33,1,.87,3.2.23,4.51L94.31,20.89,88.56,8.63A17.83,17.83,0,0,1,88,6.93a5.15,5.15,0,0,1-.14-1.18,1.8,1.8,0,0,1,.78-1.53,3.53,3.53,0,0,1,1.44-.5H79.18v0a4.3,4.3,0,0,1,1.18.45,3.21,3.21,0,0,1,1,1c1.6,2.54,3.06,6.6,4.41,9.53Z"/><path class="cls-2" d="M79.41,13.92,74.68,3.71H70.39L62.7,21.59a10.72,10.72,0,0,1-1.17,1.95,4,4,0,0,1-1.21,1,4.35,4.35,0,0,1-1.1.38v0h8.22A3.28,3.28,0,0,1,66,24.4c-1.32-1-.87-3.2-.23-4.51L70.9,7.77,76.65,20c.2.55.42,1.13.57,1.7a5.21,5.21,0,0,1,.14,1.18,1.78,1.78,0,0,1-.78,1.53,3.55,3.55,0,0,1-1.44.51H86V24.9a3.75,3.75,0,0,1-1.18-.45,3,3,0,0,1-1-1c-1.6-2.54-3-6.59-4.41-9.52Z"/><path class="cls-2" d="M118.77,13.92,114,3.71h-4.29l-7.69,17.88a10.72,10.72,0,0,1-1.17,1.95,4,4,0,0,1-1.21,1,4.22,4.22,0,0,1-1.1.38v0h8.23a3.24,3.24,0,0,1-1.47-.55c-1.33-1-.88-3.2-.24-4.51l5.16-12.12L116,20c.2.55.41,1.13.56,1.7a4.71,4.71,0,0,1,.15,1.18,1.78,1.78,0,0,1-.79,1.53,3.5,3.5,0,0,1-1.43.51H125.4V24.9a3.8,3.8,0,0,1-1.19-.45,3.11,3.11,0,0,1-1-1c-1.59-2.54-3.05-6.59-4.41-9.52Z"/><path class="cls-1" d="M11.83,23l-10,4.71V14.94l3.52,1.49a5.67,5.67,0,0,1,.7.28l4.84,2.06h0L16.14,21Z"/><path class="cls-1" d="M19.52,24.17,13.1,39.1a8.58,8.58,0,0,1-1,1.62,3.54,3.54,0,0,1-1,.84,3.72,3.72,0,0,1-.92.32H1.8V33.65h0a3.39,3.39,0,0,1,.38-1,2.56,2.56,0,0,1,.84-.86c2.12-1.33,5.51-2.55,8-3.68Z"/><path class="cls-1" d="M1.82,11.27h0V2.88h8.26v0a3.33,3.33,0,0,1,1,.38,2.65,2.65,0,0,1,.86.84c1.34,2.12,2.55,5.51,3.69,8l3.93,8.51L4.6,14.17A8.88,8.88,0,0,1,3,13.2a3.27,3.27,0,0,1-.83-1A3.51,3.51,0,0,1,1.82,11.27Z"/><path class="cls-1" d="M22.56,20.6a6.88,6.88,0,0,0,.55.53,11.36,11.36,0,0,0,1.65,1.22,9.1,9.1,0,0,0-1.65,1.18c-.23.2-.44.42-.65.64a10,10,0,0,0-1.27,1.75,9.6,9.6,0,0,0-1.14-1.75,5.68,5.68,0,0,0-.53-.57,5.81,5.81,0,0,0-1.9-1.25A10.73,10.73,0,0,0,19.52,21,4.42,4.42,0,0,0,20,20.6a5.64,5.64,0,0,0,1.23-1.82A9,9,0,0,0,22.56,20.6Z"/><path class="cls-1" d="M22,31.87l4.71,10H13.87l1.49-3.51a5.1,5.1,0,0,1,.28-.7l2.06-4.85h0L20,27.56Z"/><path class="cls-1" d="M20.66,12.91,16,2.88H28.77L27.28,6.4c-.09.25-.18.49-.28.7l-2.07,4.84h0l-2.24,5.27Z"/><path class="cls-1" d="M40.81,2.88v8.25h0a3.37,3.37,0,0,1-.37,1,2.69,2.69,0,0,1-.85.86c-2.11,1.33-5.5,2.55-7.95,3.68L23.11,20.6,29.53,5.68a8.52,8.52,0,0,1,1-1.62,3.13,3.13,0,0,1,1-.84,3.72,3.72,0,0,1,.92-.32v0Z"/><path class="cls-1" d="M30.81,21.74l10-4.7V29.83l-3.5-1.48a5.67,5.67,0,0,1-.7-.28L31.77,26h0L26.5,23.76Z"/><path class="cls-1" d="M40.5,32.6a3.16,3.16,0,0,1,.31.91v8.38H32.58v0a3.48,3.48,0,0,1-1-.37,2.59,2.59,0,0,1-.86-.85c-1.33-2.11-2.55-5.5-3.68-8l-3.94-8.5L38,30.61a8.58,8.58,0,0,1,1.62,1A3.45,3.45,0,0,1,40.5,32.6Z"/><rect class="cls-3" x="49.1" y="5.42" width="1.56" height="33.93"/></svg>